TITLE ""
FILE "Disc3Track49.mp3" MP3
  TRACK 01 AUDIO
    TITLE "Disc3Track49_01"
    INDEX 01 00:00:00
  TRACK 02 AUDIO
    TITLE "Disc3Track49_02"
    INDEX 01 00:01:02
  TRACK 03 AUDIO
    TITLE "Disc3Track49_03"
    INDEX 01 00:05:15
  TRACK 04 AUDIO
    TITLE "Disc3Track49_04"
    INDEX 01 00:06:25
  TRACK 05 AUDIO
    TITLE "Disc3Track49_05"
    INDEX 01 00:09:31
  TRACK 06 AUDIO
    TITLE "Disc3Track49_06"
    INDEX 01 00:09:64
  TRACK 07 AUDIO
    TITLE "Disc3Track49_07"
    INDEX 01 00:11:06
  TRACK 08 AUDIO
    TITLE "Disc3Track49_08"
    INDEX 01 00:13:07
  TRACK 09 AUDIO
    TITLE "Disc3Track49_09"
    INDEX 01 00:14:24
  TRACK 10 AUDIO
    TITLE "Disc3Track49_10"
    INDEX 01 00:16:64
  TRACK 11 AUDIO
    TITLE "Disc3Track49_11"
    INDEX 01 00:17:21
  TRACK 12 AUDIO
    TITLE "Disc3Track49_12"
    INDEX 01 00:18:34
  TRACK 13 AUDIO
    TITLE "Disc3Track49_13"
    INDEX 01 00:21:38
  TRACK 14 AUDIO
    TITLE "Disc3Track49_14"
    INDEX 01 00:22:51
  TRACK 15 AUDIO
    TITLE "Disc3Track49_15"
    INDEX 01 00:24:52
  TRACK 16 AUDIO
    TITLE "Disc3Track49_16"
    INDEX 01 00:25:08
  TRACK 17 AUDIO
    TITLE "Disc3Track49_17"
    INDEX 01 00:26:29
  TRACK 18 AUDIO
    TITLE "Disc3Track49_18"
    INDEX 01 00:28:38
  TRACK 19 AUDIO
    TITLE "Disc3Track49_19"
    INDEX 01 00:29:57
  TRACK 20 AUDIO
    TITLE "Disc3Track49_20"
    INDEX 01 00:31:64
  TRACK 21 AUDIO
    TITLE "Disc3Track49_21"
    INDEX 01 00:32:20
  TRACK 22 AUDIO
    TITLE "Disc3Track49_22"
    INDEX 01 00:33:43
  TRACK 23 AUDIO
    TITLE "Disc3Track49_23"
    INDEX 01 00:34:46
  TRACK 24 AUDIO
    TITLE "Disc3Track49_24"
    INDEX 01 00:35:71
  TRACK 25 AUDIO
    TITLE "Disc3Track49_25"
    INDEX 01 00:36:36
  TRACK 26 AUDIO
    TITLE "Disc3Track49_26"
    INDEX 01 00:37:74
  TRACK 27 AUDIO
    TITLE "Disc3Track49_27"
    INDEX 01 00:39:42
  TRACK 28 AUDIO
    TITLE "Disc3Track49_28"
    INDEX 01 00:41:01
  TRACK 29 AUDIO
    TITLE "Disc3Track49_29"
    INDEX 01 00:47:53
  TRACK 30 AUDIO
    TITLE "Disc3Track49_30"
    INDEX 01 00:48:09
  TRACK 31 AUDIO
    TITLE "Disc3Track49_31"
    INDEX 01 00:49:22
  TRACK 32 AUDIO
    TITLE "Disc3Track49_32"
    INDEX 01 00:50:34
  TRACK 33 AUDIO
    TITLE "Disc3Track49_33"
    INDEX 01 00:51:49
  TRACK 34 AUDIO
    TITLE "Disc3Track49_34"
    INDEX 01 00:52:15
  TRACK 35 AUDIO
    TITLE "Disc3Track49_35"
    INDEX 01 00:53:46
  TRACK 36 AUDIO
    TITLE "Disc3Track49_36"
    INDEX 01 00:55:07
  TRACK 37 AUDIO
    TITLE "Disc3Track49_37"
    INDEX 01 00:56:38
  TRACK 38 AUDIO
    TITLE "Disc3Track49_38"
    INDEX 01 00:56:75
  TRACK 39 AUDIO
    TITLE "Disc3Track49_39"
    INDEX 01 00:58:35
  TRACK 40 AUDIO
    TITLE "Disc3Track49_40"
    INDEX 01 00:59:46
  TRACK 41 AUDIO
    TITLE "Disc3Track49_41"
    INDEX 01 01:01:04
  TRACK 42 AUDIO
    TITLE "Disc3Track49_42"
    INDEX 01 01:03:23
  TRACK 43 AUDIO
    TITLE "Disc3Track49_43"
    INDEX 01 01:03:52
  TRACK 44 AUDIO
    TITLE "Disc3Track49_44"
    INDEX 01 01:04:71
  TRACK 45 AUDIO
    TITLE "Disc3Track49_45"
    INDEX 01 01:08:47
  TRACK 46 AUDIO
    TITLE "Disc3Track49_46"
    INDEX 01 01:09:66
  TRACK 47 AUDIO
    TITLE "Disc3Track49_47"
    INDEX 01 01:15:61
  TRACK 48 AUDIO
    TITLE "Disc3Track49_48"
    INDEX 01 01:16:19
  TRACK 49 AUDIO
    TITLE "Disc3Track49_49"
    INDEX 01 01:17:36
  TRACK 50 AUDIO
    TITLE "Disc3Track49_50"
    INDEX 01 01:19:55
  TRACK 51 AUDIO
    TITLE "Disc3Track49_51"
    INDEX 01 01:20:72
  TRACK 52 AUDIO
    TITLE "Disc3Track49_52"
    INDEX 01 01:24:25
